<svg xmlns="http://www.w3.org/2000/svg" version="1.1" xmlns:xlink="http://www.w3.org/1999/xlink" xmlns:svgjs="http://svgjs.com/svgjs" width="1440" height="560" preserveAspectRatio="none" viewBox="0 0 1440 560"><g mask="url(&quot;#SvgjsMask1280&quot;)" fill="none"><rect width="1440" height="560" x="0" y="0" fill="rgba(255, 255, 255, 1)"></rect><path d="M 0,241 C 41.2,204 123.6,49.4 206,56 C 288.4,62.6 329.6,263.6 412,274 C 494.4,284.4 535.6,126.2 618,108 C 700.4,89.8 741.6,201.2 824,183 C 906.4,164.8 947.6,22.4 1030,17 C 1112.4,11.6 1154,155 1236,156 C 1318,157 1399.2,48.8 1440,22L1440 560L0 560z" fill="rgba(255, 255, 255, 1)"></path><path d="M 0,371 C 48,386 144,443.8 240,446 C 336,448.2 384,374.2 480,382 C 576,389.8 624,490.4 720,485 C 816,479.6 864,360.6 960,355 C 1056,349.4 1104,451 1200,457 C 1296,463 1392,399.4 1440,385L1440 560L0 560z" fill="rgba(0, 0, 0, 1)"></path></g><defs><mask id="SvgjsMask1280"><rect width="1440" height="560" fill="#ffffff"></rect></mask></defs></svg>